<?xml version="1.0" encoding="UTF-8"?>
<svg xmlns="http://www.w3.org/2000/svg" viewBox="0 0 2000 2000">
  <defs>
    <style>
      .cls-1 {
        stroke-width: 12.842px;
      }

      .cls-1, .cls-2, .cls-3, .cls-4, .cls-5, .cls-6, .cls-7, .cls-8 {
        stroke: #d4af37;
        stroke-miterlimit: 10;
      }

      .cls-1, .cls-2, .cls-3, .cls-8 {
        fill: none;
      }

      .cls-2, .cls-7 {
        stroke-width: 9.879px;
      }

      .cls-3 {
        stroke-width: 24.697px;
      }

      .cls-4 {
        stroke-width: 4.939px;
      }

      .cls-4, .cls-5, .cls-6, .cls-7 {
        fill: #d4af37;
      }

      .cls-5 {
        stroke-width: 8.891px;
      }

      .cls-6 {
        stroke-width: 3.952px;
      }

      .cls-8 {
        stroke-width: 49.394px;
      }
    </style>
  </defs>
  <g id="Circle">
    <path id="Outer_Circle" data-name="Outer Circle" class="cls-8" d="M998.904,34.512C465.221,34.512,32.588,467.145,32.588,1000.828s432.633,966.316,966.316,966.316,966.316-432.633,966.316-966.316S1532.587,34.512,998.904,34.512Z"/>
    <path id="Inner_Circle" data-name="Inner Circle" class="cls-3" d="M738.174,468.317c-2.607.7-5.378,1.59-8.261,2.727-8.505,3.354-20.023,6.382-24.971,10.343"/>
    <path id="Inner_Circle-2" data-name="Inner Circle" class="cls-8" d="M556.653,609.383c-92.405,104.217-148.233,241.205-148.233,391.446,0,326.121,264.364,590.484,590.484,590.484s590.484-264.363,590.484-590.484c0-370.354-349.265-582.837-590.484-590.484-48.815-1.548-91.681,5.342-126.518,14.287"/>
  </g>
  <g id="Stars_and_Text" data-name="Stars and Text">
    <g id="Stars_15" data-name="Stars 15">
      <polygon class="cls-7" points="1055.464 296.42 998.386 255.516 941.049 296.056 962.312 229.132 906.039 187.128 976.258 186.67 998.817 120.171 1020.951 186.813 1091.166 187.718 1034.626 229.362 1055.464 296.42"/>
      <polygon class="cls-7" points="764.146 334.215 695.365 320.064 659.474 380.419 651.679 310.632 583.186 295.149 647.149 266.17 640.709 196.245 688.035 248.122 752.548 220.389 717.835 281.43 764.146 334.215"/>
      <polygon class="cls-7" points="346.544 729.014 290.004 770.659 310.841 837.717 253.763 796.813 196.426 837.353 217.69 770.429 161.416 728.425 231.636 727.967 254.194 661.468 276.328 728.11 346.544 729.014"/>
      <polygon class="cls-7" points="292.467 1017.754 257.753 1078.795 304.064 1131.58 235.284 1117.428 199.393 1177.784 191.597 1107.997 123.105 1092.513 187.067 1063.534 180.628 993.609 227.954 1045.486 292.467 1017.754"/>
      <polygon class="cls-7" points="360.506 1303.525 353.621 1373.408 417.398 1402.794 348.808 1417.841 340.569 1487.577 305.063 1426.994 236.194 1440.707 282.84 1388.218 248.515 1326.957 312.85 1355.1 360.506 1303.525"/>
      <polygon class="cls-7" points="538.897 1536.916 561.031 1603.558 631.246 1604.463 574.707 1646.107 595.544 1713.165 538.466 1672.261 481.129 1712.801 502.392 1645.877 446.119 1603.873 516.338 1603.415 538.897 1536.916"/>
      <polygon class="cls-7" points="796.794 1677.572 844.12 1729.449 908.633 1701.716 873.919 1762.757 920.23 1815.543 851.45 1801.391 815.558 1861.747 807.763 1791.96 739.271 1776.476 803.233 1747.497 796.794 1677.572"/>
      <polygon class="cls-7" points="1089.604 1701.171 1153.939 1729.314 1201.594 1677.739 1194.709 1747.622 1258.486 1777.007 1189.896 1792.055 1181.657 1861.791 1146.151 1801.208 1077.282 1814.921 1123.928 1762.432 1089.604 1701.171"/>
      <polygon class="cls-7" points="1366.698 1603.633 1436.917 1603.175 1459.475 1536.676 1481.61 1603.318 1551.825 1604.223 1495.285 1645.867 1516.122 1712.925 1459.045 1672.021 1401.707 1712.561 1422.971 1645.637 1366.698 1603.633"/>
      <polygon class="cls-7" points="1580.163 1401.824 1644.126 1372.845 1637.686 1302.919 1685.013 1354.796 1749.525 1327.064 1714.812 1388.105 1761.123 1440.89 1692.342 1426.739 1656.451 1487.094 1648.656 1417.307 1580.163 1401.824"/>
      <polygon class="cls-7" points="1693.091 1130.637 1739.737 1078.148 1705.413 1016.887 1769.748 1045.03 1817.403 993.455 1810.518 1063.338 1874.295 1092.724 1805.705 1107.771 1797.466 1177.507 1761.96 1116.924 1693.091 1130.637"/>
      <polygon class="cls-7" points="1685.954 836.964 1707.217 770.04 1650.944 728.037 1721.163 727.579 1743.722 661.08 1765.856 727.721 1836.071 728.626 1779.531 770.27 1800.369 837.329 1743.291 796.425 1685.954 836.964"/>
      <polygon class="cls-7" points="1559.986 571.584 1552.191 501.797 1483.698 486.313 1547.661 457.334 1541.221 387.409 1588.547 439.286 1653.06 411.553 1618.347 472.594 1664.657 525.38 1595.877 511.228 1559.986 571.584"/>
      <polygon class="cls-7" points="1336.969 380.382 1301.462 319.799 1232.593 333.513 1279.239 281.023 1244.915 219.762 1309.25 247.905 1356.906 196.331 1350.021 266.213 1413.798 295.599 1345.208 310.646 1336.969 380.382"/>
    </g>
  </g>
  <g id="Mrs.Liberty">
    <g id="Outline_Body" data-name="Outline Body">
      <path class="cls-2" d="M1000.186,1170.219s22.752-18.615,57.913,0c5.781,3.06-14.478,14.478-14.478,14.478h-37.23"/>
      <line class="cls-2" x1="1036.044" y1="1138.974" x2="1035.347" y2="1159.878"/>
    </g>
    <g id="Shadows_Body" data-name="Shadows Body">
      <path class="cls-7" d="M930.897,1270.533s0-105.484-1.034-92.04c-1.034,13.444-17.581,56.879-17.581,56.879,0,0,4.137,22.752,18.615,35.161Z"/>
      <path class="cls-7" d="M1108.087,1095.948c14.668,10.607-8.622,32.905-8.622,32.905,0,0,8.273,59.981-35.161,78.596,0,0-4.137,22.752-31.025,22.752,0,0-33.093,6.205-41.366-12.41,0,0,3.102,13.444-5.171,15.512-8.273,2.068-42.401-38.264-42.401-38.264,0,0-1.034,58.947,54.811,100.314,26.888,20.683,12.41,53.776,12.41,53.776,0,0-20.683,6.205-33.093-10.342-12.41-16.547-23.3-31.334-26.129-33.248-2.828-1.914,9.582,33.248,9.582,33.248,0,0,42.698,29.239,55.476,32.2,12.778,2.961,23.12.893,23.12-7.38s12.41-28.956,12.41-28.956c0,0,51.708-93.074,55.845-124.099,6.205-28.956,22.752-88.938,20.683-107.553,0,0,6.205-16.547,12.41,0,6.205,16.547,6.205,25.739,0,36.655,12.41-11.835,10.342-26.314,10.342-26.314,0,0,13.212-4.865,4.538-15.877-8.674-11.012-10.356-18.45-16.754-23.004-14.671-2.486-6.444-12.902-6.444-12.902l10.055-8.774s6.537-15.971.332-36.655c-6.205-20.683-12.41-8.273-12.41-8.273,0,0,0,4.137-4.137,2.068s-2.068-12.41-8.273-10.342c-6.205,2.068-6.205,14.478-6.205,14.478,0,0-2.068,8.273-14.478,4.137-12.079-4.026-63.344-17.849-77.453-38.862-.138-.206-.457-.026-.362.203,10.604,25.372,70.762,48.4,70.762,48.4,0,0,15.386,8.628,10.186,18.058-5.201,9.43-3.132,25.977-3.132,25.977,0,0,2.766,18.992,9.656,23.974Z"/>
      <path class="cls-7" d="M1108.772,1247.781s-8.273,99.279,0,109.621c8.273,10.342,16.547,16.547,24.82,18.615,8.273,2.068-49.64,2.068-49.64,2.068,0,0-26.888,2.068-28.956-8.273-2.068-10.342,31.025-64.118,31.025-64.118,0,0,20.683-49.64,22.752-57.913Z"/>
      <path class="cls-7" d="M877.12,1131.955l-31.025,43.435s14.478,22.752,20.683,24.82,16.547-26.888,16.547-26.888c0,0,6.205,20.683-2.068,35.161s14.478,20.683,14.478,20.683c0,0,20.683-37.23,18.615-45.503-2.068-8.273-35.161-18.615-37.23-51.708Z"/>
      <path class="cls-7" d="M1129.456,1173.322s-16.547,161.329,8.273,192.354c24.82,31.025,33.093,39.298,33.093,39.298,0,0-26.888-31.025-24.82-41.366,2.068-10.342,31.025-6.205,31.025-6.205l12.41,4.137s-18.615-88.938-26.888-101.348c-8.273-12.41,0,78.596,0,78.596,0,0-35.161-142.714-33.093-165.466Z"/>
      <path class="cls-7" d="M950.339,1055.437c-.113-.002-.129-.162-.018-.185,6.716-1.408,52.967-10.132,52.967,16.722,0,27.673-28.773,24-28.773,24l-.013-.097s19.459-9.424-.171-9.424c-20.683,0-66.186-14.478,4.137-22.752-1.851-7.406-23.59-8.182-28.129-8.264Z"/>
      <path class="cls-6" d="M1111.875,909.611c-103.416-59.981-177.876-4.137-177.876-4.137-95.143,49.64-62.05,136.509-62.05,136.509,6.205-31.025,62.05-97.211,146.851-93.074,84.801,4.137,113.758,37.23,119.963,49.64,6.205,12.41,14.478,43.435,14.478,43.435,0,0,12.41,57.913,14.478-10.342,14.478-93.074-55.845-122.031-55.845-122.031ZM903.8,985.164l-1.655,1.819c-.816.897-2.204.962-3.101.146l-10.816-9.844c-.897-.816-.962-2.204-.146-3.101l1.655-1.819c.816-.897,2.204-.962,3.101-.146l10.816,9.844c.897.816.962,2.204.146,3.101ZM917.485,970.684l-2.156,2.156c-.801.801-2.1.801-2.902,0l-15.241-15.241c-.801-.801-.801-2.1,0-2.902l2.156-2.156c.801-.801,2.1-.801,2.902,0l15.241,15.241c.801.801.801,2.1,0,2.902ZM935.44,959.595l-3.422,2.367c-.934.646-2.215.412-2.861-.522l-16.026-23.175c-.646-.934-.412-2.215.522-2.861l3.422-2.366c.934-.646,2.215-.412,2.861.522l16.026,23.175c.646.934.412,2.215-.522,2.861ZM955.345,953.475l-2.264.899c-1.317.523-2.809-.121-3.332-1.438l-11.928-30.046c-.523-1.317.121-2.809,1.438-3.332l2.264-.899c1.317-.523,2.809.121,3.332,1.438l11.928,30.046c.523,1.317-.121,2.809-1.438,3.332ZM979.656,948.627l-1.877.527c-1.405.394-2.863-.425-3.257-1.83l-10.36-36.908c-.394-1.405.425-2.863,1.83-3.257l1.877-.527c1.405-.394,2.863.425,3.257,1.83l10.36,36.908c.394,1.405-.425,2.863-1.829,3.257ZM1004.94,945.57l-3.787.32c-1.231.104-2.313-.81-2.417-2.04l-3.552-42.088c-.104-1.231.81-2.313,2.04-2.417l3.787-.32c1.231-.104,2.313.81,2.417,2.04l3.552,42.088c.104,1.231-.81,2.313-2.04,2.417ZM1034.263,942.659c-.067,1.27-1.151,2.245-2.421,2.178l-3.663-.193c-1.27-.067-2.245-1.151-2.178-2.421l2.157-40.841c.067-1.27,1.151-2.245,2.421-2.178l3.663.193c1.27.067,2.245,1.151,2.178,2.421l-2.157,40.841ZM1062.024,944.016c-.237,1.398-1.562,2.34-2.961,2.103l-3.093-.524c-1.398-.237-2.34-1.563-2.103-2.961l6.473-38.195c.237-1.398,1.563-2.34,2.961-2.103l3.093.524c1.398.237,2.34,1.563,2.103,2.961l-6.473,38.195ZM1100.844,919.565l-12.013,33.111c-.45,1.241-1.821,1.882-3.062,1.432l-3.844-1.395c-1.241-.45-1.882-1.821-1.432-3.062l12.013-33.111c.45-1.241,1.821-1.882,3.062-1.432l3.844,1.395c1.241.45,1.882,1.821,1.432,3.062ZM1107.269,964.717l-2.148-1.125c-1.569-.821-2.174-2.758-1.353-4.327l13.536-25.857c.821-1.568,2.758-2.174,4.327-1.353l2.148,1.124c1.568.821,2.174,2.758,1.353,4.327l-13.536,25.857c-.821,1.569-2.758,2.174-4.327,1.353ZM1128.389,976.036c-.913,1.163-2.596,1.366-3.759.453l-2.641-2.073c-1.163-.913-1.366-2.596-.453-3.759l16.051-20.446c.913-1.163,2.596-1.366,3.759-.453l2.641,2.073c1.163.913,1.366,2.596.453,3.759l-16.051,20.446ZM1152.883,976.156l-11.777,11.777c-1.34,1.34-3.514,1.34-4.854,0l-1.189-1.189c-1.341-1.341-1.341-3.514,0-4.854l11.777-11.777c1.341-1.341,3.514-1.341,4.854,0l1.189,1.189c1.34,1.34,1.34,3.514,0,4.854Z"/>
      <path class="cls-7" d="M1160.182,1161.946s-1.77,44.469,18.913,56.879c-6.205,6.205-8.273,2.068-10.342,12.41s-8.273-26.888-8.273-26.888c0,0-8.331-16.547-19.678-19.649-11.347-3.102,6.671-15.512,19.38-22.752Z"/>
      <path class="cls-7" d="M1039.484,1135.058s3.61-28.707,19.903-40.725c16.293-12.018,36.976-7.881,36.976-7.881,0,0,0-26.888-3.102-34.127,0,0-49.64-2.068-53.776,14.478v68.255s-14.478,10.342-28.956,0"/>
      <path class="cls-7" d="M924.692,1121.526v-36.627s-7.702-17.227,9.593-32.657c17.295-15.43,31.773-27.84,54.525-34.045,22.752-6.205,26.888-26.888,26.888-35.161-14.478,10.342-20.683,14.478-31.025,18.615-10.342,4.137-39.298,14.478-62.05,45.503,0,0-20.078,9.041-29.637-6.514-.037-.06-.128-.025-.115.044,2.998,16.839,13.206,18.88,13.206,18.88,0,0,6.205,8.273-6.205,16.547-12.41,8.273-18.615,22.752-18.615,22.752,0,0-2.022,6.292-9.827,8.336-.163.043-.181.264-.025.329,14.082,5.814,18.125,5.814,18.125,5.814,0,0,0,26.888,18.615,31.025-10.342-26.888-8.273-35.161-8.273-35.161,0,0,2.068-8.273,8.273-6.205,6.133,2.044,16.308,16.214,16.542,18.538,0,.008.004-.003.004-.011Z"/>
      <path class="cls-7" d="M860.574,1214.688s4.137,113.758-8.273,161.329c-12.41,47.571,28.956-105.484,24.82-138.578-6.205-20.683-16.547-22.752-16.547-22.752Z"/>
      <path class="cls-7" d="M891.599,1243.645s-4.137,157.192-28.956,204.764c-24.82,47.571,47.571-109.621,43.435-155.124,4.137-8.273,8.527,10.404,8.527,10.404,0,0-.254,24.757-4.39,41.304-4.137,16.547,18.615-45.503,16.547-62.05-8.273-14.478-35.161-39.298-35.161-39.298Z"/>
      <path class="cls-7" d="M738.543,1493.912s86.344-115.657,86.607-180.894c-39.035,79.546-33.226,74.258-51.643,95.517-8.075,23.327-6.007,54.352-34.963,85.377Z"/>
      <path class="cls-7" d="M827.481,1235.371s-28.956,188.217-144.782,270.95c14.478-33.093,70.043-106.78,66.046-134.055-2.598-12.351-5.255-14.926-6.796-15.215-.89-.167-1.659-.713-1.88-1.591-2.317-9.233-9.985-51.126,19.101-120.089-4.08,55.845-.385,64.526-.385,64.526,0,0,8.714,29.907,33.534-1.797,24.82-31.704,33.093-48.25,35.161-62.729Z"/>
      <path class="cls-7" d="M703.381,1316.036s-46.977,128.298-53.479,139.643c-6.502,11.344-47.869-30.022-47.869-30.022,0,0-33.093-37.23,8.273-55.845,20.683-4.137,12.41,2.068,31.025-2.068,18.283-4.063,62.05-51.708,62.05-51.708Z"/>
      <path class="cls-7" d="M773.269,1278.435s53.858-34.678,45.245-103.506c0,0-2.409,9.769-10.682,18.042,0,0-8.273-12.41-12.41-49.64,0,0-2.368-6.674-1.184-15.747,1.184-9.073-14.677-3.631-14.677-3.631l-12.795,14.896s-12.71,95.488-93.375,151.333l-22.752,12.41s111.689-43.435,134.441-128.236c0,0,13.608,59.238-11.811,104.079Z"/>
    </g>
    <g id="Shadows_Left_Arm" data-name="Shadows Left Arm">
      <path class="cls-4" d="M639.256,616.244s-2.922-4.388-5.259-1.755c0,0,4.09,26.327,7.012,51.776,2.922,25.449,1.753-33.347-1.753-50.021Z"/>
      <path class="cls-4" d="M609.578,618.728s-8.305,50.169-11.227,72.985c0,0,6.428,15.796,7.012,33.347,0,0,7.26-81.91,4.215-106.333Z"/>
      <path class="cls-4" d="M892.633,479.4c-4.137-6.205-16.547-4.137-16.547-4.137l-6.205-76.528c-2.068-18.615-24.82-14.478-24.82-14.478l-6.205-28.956c-20.683-12.41-35.161,0-35.161,0-16.547-12.41-31.025,0-31.025,0-16.547-12.41-33.093-2.068-33.093-2.068-16.547,18.615-16.547,132.373-16.547,132.373l-11.373-.16c-5.168-14.638-15.023-14.596-15.023-14.596,2.561-6.482,1.421-16.807,1.421-16.807-4.292-15.016-24.402-16.216-24.402-16.216-18.352-4.344-25.082,12.617-25.082,12.617-8.273-16.547-24.82-14.478-24.82-14.478-18.615-2.068-24.82,12.41-24.82,12.41-8.273-16.547-26.888-12.41-26.888-12.41-16.547,0-20.085,17.91-20.085,17.91l-4.961-7.444c-20.909-12.286-33.137,7.822-33.137,7.822-4.406,7.946.27,31.352.27,31.352h-37.23c4.137-31.025-16.547-134.441-16.547-134.441-14.478-8.273-35.161,2.068-35.161,2.068-14.478-8.273-31.025,0-31.025,0-18.615-10.342-35.161,2.068-35.161,2.068l-6.205,26.888c-26.888-2.068-24.82,22.752-24.82,22.752l-6.205,70.323c-8.273-4.137-14.478,2.068-14.478,2.068-10.342,20.683-6.205,62.05-6.205,62.05,0,22.752,20.683,18.615,20.683,18.615,0,18.615,6.205,66.186,6.205,66.186,2.068,20.683,26.888,16.547,26.888,16.547l8.273,31.025c12.41,12.41,31.025,2.068,31.025,2.068,10.342,10.342,37.23,2.068,37.23,2.068,18.615,8.273,35.161-4.137,35.161-4.137,10.342-49.64,10.342-128.236,10.342-128.236h33.093c-10.342,51.708,33.093,66.186,33.093,66.186,14.478,14.478,12.022,61.825,12.022,61.825-85.189,219.018,7.597,310.655,7.597,310.655-25.884,76.711,1.064,107.37,1.064,107.37-22.752,39.298-28.956,101.348-28.956,101.348-14.478,105.484,58.232,158.251,58.232,158.251l183.762-228.574c6.205-190.286-63.338-202.457-63.338-202.457,33.873-134.202-31.534-224.951-31.534-224.951-18.344-55.11-6.475-93.809-6.475-93.809,22.752-8.273,36.942-37.683,36.942-37.683l2.356-16.093h8.273c-2.068,53.776,10.342,128.236,10.342,128.236,22.752,12.41,35.161,2.068,35.161,2.068,26.888,10.342,37.23,0,37.23,0,24.82,8.273,31.025-4.137,31.025-4.137l8.273-28.956c22.752,2.068,24.82-10.342,24.82-10.342,8.273-18.615,6.205-74.46,6.205-74.46,16.547,2.068,18.615-6.205,18.615-6.205,10.342-37.23-2.068-72.391-2.068-72.391ZM321.776,524.903h-14.478s-1.384-6.863-.692-26.183l15.449.112s-.279,7.456-.279,26.071ZM332.118,605.568s-4.137-12.41-4.137-24.82h18.615s0,8.273,2.068,24.82h-16.547ZM344.528,495.947h-16.547s-2.068-31.025,2.068-68.255h18.615s-4.137,35.161-4.137,68.255ZM666.456,447.352s35.346,7.04,22.091,25.03c0,0-27.246-6.257-42.71-3.911,0,0,5.155-24.248,20.618-21.119ZM601.655,456.738s17.673-21.119,39.764,1.564c0,0,1.791,11.733-6.836,14.079,0,0-8.627,4.693-2,24.248,0,0-12.206,25.164-33.717,2.023,0,0-3.102-23.142,2.789-41.914ZM556.508,459.728s14.219-23.326,38.52-2.989c0,0-4.418,21.119-3.682,43.803,0,0-10.309,14.862-31.664,2.347,0,0-5.611-22.18-3.174-43.16ZM516.972,464.046s16.032-20.884,30.475-4.319c0,0,8.552,15.001,4.134,38.467,0,0-12.518,12.515-27.982,2.347,0,0-8.836-18.236-6.627-36.495ZM448.436,407.283s-6.4,36.955-6.4,63.843h-26.888s-2.068-18.615,4.137-64.118l29.151.275ZM417.411,407.283s-6.4,36.955-6.4,63.843h-26.888s-2.068-18.615,4.137-64.118l29.151.275ZM352.801,471.127s-2.068-18.615,4.137-64.118l29.151.275s-6.4,36.955-6.4,63.843h-26.888ZM361.074,622.114s-4.137-8.273-4.137-28.956h26.888s0,14.478,4.137,28.956h-26.888ZM392.894,622.114s-4.137-8.273-4.137-28.956h26.888s0,14.478,4.137,28.956h-26.888ZM423.919,622.114s-4.137-8.273-4.137-28.956h26.888s0,14.478,4.137,28.956h-26.888ZM471.729,490.776h43.435s4.137,6.205,4.137,16.547h-59.981s2.068-16.547,12.41-16.547ZM513.096,534.211h-45.503c-4.137-2.068-5.073-8.475-5.073-8.475l53.401-.042-2.825,8.517ZM559.199,679.428s2.297,28.082-.02,48.266c0,0,12.876-92.143,11.707-115.837,0,0,32.907,7.898,47.716-4.388,0,0,8.966,114.082,7.797,149.185-1.169,35.102,7.012-37.735,7.012-37.735,0,0,69.538,93.899-19.868,236.94,0,0-133.817-72.837-54.345-276.43ZM623.121,607.468s20.81,4.388,33.665,0c0,0,12.271,69.327-2.922,120.225,0,0-8.765-14.041-21.037-29.837,0,0-5.974-76.347-9.707-90.388ZM628.219,1298.055c-22.019-16.356-56.444-50.529-71.357-111.399,0,0,2.328-53.564,12.559-79.436,0,0,31.852,58.374,57.563,86.456,0,0-66.032-107.062-52.592-180.777,0,0,41.489,54.409,44.995,64.062,0,0-2.337,50.021,17.53,99.164,0,0,1.504,57.534,6.621,103.419l-15.32,18.511ZM651.526,1269.893c-6.098-35.277-5.842-69.196-5.842-69.196,2.412,9.054,16.173,26.508,28.934,41.293l-23.092,27.903ZM765.754,1034.848s10.539,39.781,2.279,94.265l-74.424,89.929c-17.041-21.673-36.818-65.546-47.649-154.369,0,0,1.747-133.014,39.428-136.716,0,0,54.056-27.385,80.366,106.891ZM710.643,780.71c10.614,94.262-39.248,108.454-39.248,108.454,17.531-72.837-15.778-154.45-15.778-154.45,9.934-31.592,14.025-51.776,14.025-51.776,25.711,35.98,41.001,97.772,41.001,97.772ZM706.956,557.641c-18.409,31.288-46.392,37.545-46.392,37.545-50.073,14.079-87.628-18.772-87.628-18.772,5.891,14.862,23.564,23.466,23.564,23.466-68.483,28.159-79.528-41.456-79.528-41.456,8.1-36.763,58.174-29.723,58.174-29.723-9.573,11.733-2.946,12.515-2.946,12.515,37.555-43.803,88.037-10.951,88.037-10.951,18.082,7.822,12.11,0,12.11,0-11.782-3.911-3.609-13.68-3.609-13.68,17.009-3.512,6.554-5.875,6.554-5.875-44.182,0-38.291-31.288-38.291-31.288,5.155-10.951,63.735-2.349,63.735-2.349,14.398,5.473,6.22,80.568,6.22,80.568ZM728.853,536.329l-15.13-.05.577-10.697h17.632c-.406,5.849-3.079,10.747-3.079,10.747ZM713.88,508.313l-.157-17.537h10.342s9.477-.087,8.875,17.537h-19.06ZM841.973,409.077c5.726,45.503,3.818,64.118,3.818,64.118h-24.813c0-26.888-5.906-63.843-5.906-63.843l26.902-.275ZM812.258,409.077c5.726,45.503,3.818,64.118,3.818,64.118h-24.813c0-26.888-5.906-63.843-5.906-63.843l26.902-.275ZM781.233,409.077c5.726,45.503,3.818,64.118,3.818,64.118h-24.813c0-26.888-5.906-63.843-5.906-63.843l26.902-.275ZM779.174,622.114h-26.888c4.137-14.478,4.137-28.956,4.137-28.956h26.888c0,20.683-4.137,28.956-4.137,28.956ZM784.64,622.114c4.137-14.478,4.137-28.956,4.137-28.956h26.888c0,20.683-4.137,28.956-4.137,28.956h-26.888ZM842.553,622.114h-26.888c4.137-14.478,4.137-28.956,4.137-28.956h26.888c0,20.683-4.137,28.956-4.137,28.956ZM866.411,609.704h-16.547c2.068-16.547,2.068-24.82,2.068-24.82h18.615c0,12.41-4.137,24.82-4.137,24.82ZM870.532,498.015h-16.547c0-33.093-4.137-68.255-4.137-68.255h18.615c4.137,37.23,2.068,68.255,2.068,68.255ZM892.013,527.129h-14.478c0-18.615-.279-26.071-.279-26.071l15.449-.112c.692,19.32-.692,26.183-.692,26.183Z"/>
    </g>
    <path class="cls-5" d="M1222.31,1547.109l16.153-6.546c-3.275-27.701-9.726-56.991-22.138-77.677,0,0-1.609,35.369-5.203,84.037l7.118-5.268,4.07,5.454Z"/>
    <path class="cls-5" d="M1177.027,1433.93s-32.299,68.077-67.67,143.339l40.923-8.661c15.237-76.584,26.747-134.678,26.747-134.678Z"/>
    <path class="cls-5" d="M1137.729,1469.092s-41.823,58.299-86.887,117.725l19.268-.833c38.836-67.175,67.619-116.892,67.619-116.892Z"/>
    <path class="cls-5" d="M974.19,1590.384c54.221-73.018,101.489-148.18,101.489-148.18-47.536,24.759-96.019,86.503-133.646,144.14l32.157,4.041Z"/>
    <path class="cls-5" d="M862.055,1572.471l23.332,6.146c49.759-46.554,143.835-134.332,163.405-150.891-35.161-14.478-55.845-35.161-55.845-35.161,0,0,7.481,28.192,0,22.752-22.752-16.547-51.708-68.255-53.776-103.416-2.068-35.162-8.273,51.708,8.273,88.938,16.547,37.23,38.202,67.645,24.82,57.913-22.752-16.547-31.025-28.957-41.366-70.323-10.342-41.366,6.205,99.279-10.342,124.099-16.547,24.82-16.547-43.435-16.547-43.435l2.068-51.708s-27.803,87.801-44.022,155.087Z"/>
    <path class="cls-5" d="M817.849,1562.781c4.713-72.825,13.768-122.645,13.768-122.645,0,0-20.541,52.039-37.198,112.78l23.43,9.865Z"/>
    <path class="cls-5" d="M792.319,1440.135c-10.077,21.273-28.039,49.218-56.498,84.809l34.086,18.339c11.288-58.091,22.413-103.147,22.413-103.147Z"/>
    <path class="cls-5" d="M1291.567,1513.136l15.057-8.965c-37.729-21.763-64.973-52.153-64.973-52.153,14.593,27.404,31.784,47.111,49.916,61.118Z"/>
    <path class="cls-5" d="M1393.766,1439.509c-60.178-28.578-143.72-19.023-143.72-19.023-37.636,2.068-45.043-15.512-45.043-15.512-6.151-9.307-20.737-21.717-20.737-21.717,12.41,12.41,8.273,37.23,8.273,37.23-4.137,20.683,10.342,26.888,10.342,26.888,4.137,6.205,28.957-10.342,28.957-10.342,59.921-17.976,117.062-5.399,154.53,8.36l7.399-5.884Z"/>
    <path class="cls-1" d="M1300.957,1504.879c3.85-5.775,65.448-42.991,65.448-42.991l54.907-57.133c-34.421-4.185-62.379.988-62.379.988-159.367-17.846-157.994-43.435-157.994-43.435-18.615-24.82-26.888-115.826-26.888-115.826,16.547-4.137,18.615-20.683,18.615-20.683-47.571-132.373-24.82-111.689-24.82-111.689,26.888,0,2.068-45.503,2.068-45.503,10.342-18.615,4.137-45.503,4.137-45.503l190.286-10.342-188.217-16.547c-2.068-22.751-10.342-33.093-10.342-33.093l184.081-68.255-196.491,43.435c-14.478-24.82-31.025-31.025-31.025-31.025l111.689-126.168-138.578,105.484c-26.888-12.41-57.913-14.478-57.913-14.478l-17.707-160.03-21.591,160.03c-26.888,0-64.118,16.547-64.118,16.547l-127.328-106.253,102.508,124.868s-24.82,16.547-33.093,33.093l-203.856-44.204,187.309,69.024s2.068,24.82,0,35.162l-94.576,6.149c1.079,3.62,2.128,7.658,3.018,12.006l89.49,6.665s10.342,39.298,14.478,45.503c0,0-20.683,20.683-16.547,31.025,0,0,0,16.547,16.547,24.82l-37.23,49.64-24.946-28.691.019-.056c-19.668-21.661-20.395-36.07-34.506-19.013l-197.164,238.312c.374,23.743,1.895,45.404,11.747,60.854,56.012,87.836,231.086,146.737,436.208,162.621,87.72-22.049,175.212-44.481,262.716-66.894,6.204-9.531,10.936-16.76,12.038-18.413Z"/>
  </g>
</svg>