<?xml version="1.0" encoding="UTF-8"?>
<svg id="Ebene_1" data-name="Ebene 1" xmlns="http://www.w3.org/2000/svg" viewBox="0 0 3719.343 657.638">
  <defs>
    <style>
      .cls-1 {
        fill: none;
      }

      .cls-2 {
        fill: #bd9b54;
      }

      .cls-3 {
        fill: #fff;
      }
    </style>
  </defs>
  <path class="cls-2" d="M441.195,479.451s-9.375-17.188-23.438-25c-7.812-3.125-21.875-3.125-31.25-1.563-10.938,0-26.563,6.25-35.937,18.75-6.25,7.812-9.375,20.312-15.625,32.813,0,0,7.812,48.438-40.625,89.063,0,0,0,10.938,18.75,18.75,0,0,18.75-64.063,39.062-84.375,0,0,14.062-14.062,43.75-25,9.375-3.125,20.312-9.375,28.125-15.625,6.25-3.125,9.375-6.25,17.188-7.812h0Z"/>
  <path class="cls-2" d="M436.508,440.388q-4.687,0-7.812-3.125-3.125,0-4.687-1.563-7.812,0-15.625-1.563c-29.687,0-46.875,7.812-46.875,7.812-4.687,3.125-7.812,4.687-12.5,9.375-4.687,6.25-14.062,14.062-25,23.438-12.5,9.375-29.687,17.188-45.312,26.563,0,0-56.25,39.062-60.937,137.5,0,0-26.563,0-28.125-28.125,0,0,37.5-35.937,39.062-103.125,0,0-1.563-12.5,6.25-20.312,0,0,18.75-18.75,23.438-34.375,0,0,1.563-17.188,9.375-40.625,6.25-21.875,20.312-45.312,35.937-67.187,12.5-18.75,21.875-31.25,42.188-40.625,17.188-7.812,45.312-7.812,67.187-3.125l12.5,4.687h-3.125c-17.188,4.687-90.625,29.687-107.812,87.5,0,0,0,6.25,0,4.687,0,0,0-1.563,3.125-4.687,1.563-3.125,4.687-6.25,9.375-12.5,4.687-7.812,14.062-18.75,26.563-31.25,18.75-17.188,54.688-28.125,98.437-43.75,0,0,9.375-3.125,7.812-1.563,0,0,3.125,0,0,3.125,0,0-1.563,7.812-4.687,17.188-4.687,15.625,0,106.25,21.875,126.563,0,0,4.687,4.687,4.687,6.25s-9.375,0-15.625-3.125c0,0-17.188-4.687-25-12.5h-4.687v-1.563Z"/>
  <path class="cls-2" d="M161.508,312.263c9.375,1.563,40.625,3.125,54.688,50,0,0,7.812,18.75,28.125,20.312,0,0,17.188,4.687,45.312-25l3.125-3.125s-31.25,6.25-54.688,0-20.312-53.125-64.063-50c0,0-29.687,3.125-12.5,7.812h0Z"/>
  <path class="cls-2" d="M514.633,159.138s125-21.875,128.125,137.5c0,0,6.25,90.625-50,176.562,0,0-23.438,21.875-18.75,57.813,0,0,3.125,17.188-15.625,32.813,0,0-15.625-3.125-12.5-25,0,0,10.938-9.375,18.75-32.813s17.188-21.875,12.5-59.375c0,0,28.125-34.375,35.937-73.438v-3.125s-57.813,81.25-71.875,89.063h-7.812s-12.5,3.125-3.125,10.938c0,0,21.875,9.375,0,29.687,0,0-10.938,28.125,3.125,54.688,0,0,20.312,25,3.125,48.438,0,0-1.563,3.125-7.812,4.687,0,0-17.188-1.563-20.312-7.812,0,0-9.375-4.687-7.812-23.438,0,0,9.375-12.5,14.062-28.125,0,0,7.812-35.937-14.062-53.125,0,0-15.625-17.188,3.125-39.062,0,0,3.125-3.125,4.687-6.25,0,0-25-18.75-29.687-35.937,0-1.563-3.125-7.812,0-6.25,0,0,6.25,4.687,17.188,10.938l3.125,3.125s-26.563-40.625-28.125-59.375c0,0,0-4.687,0-3.125,0,0,6.25,10.938,17.188,15.625,0,0,3.125,1.563,3.125,0,0,0-34.375-70.312-26.563-95.313,0,0,7.812-7.812,29.687,14.062,0,0,1.563,1.563,1.563,0,0,0-4.687-31.25-45.312-53.125-7.812-4.687-17.188-7.812-26.563-7.812-12.5-1.563-32.813-3.125-50-3.125,0,0-20.312-9.375-29.687,0,0,0-9.375,9.375-17.188,0,0,0-31.25-25-4.687-40.625,0,0,50-31.25,59.375-50,0,0,14.062-17.188-7.812-20.312-3.125,0-9.375-1.563-14.062-6.25l-6.25-4.687c-7.812-7.812-15.625-15.625-21.875-23.438,0-1.563-1.563-3.125-3.125-6.25-9.375-17.188-17.188-40.625-7.812-35.937l9.375,12.5c9.375,14.062,17.188,21.875,29.687,31.25,10.938,9.375,23.438,14.062,48.438,17.188,0,0,21.875-34.375,89.063-20.312,0,0,7.812,0,0-14.062,0,0-4.687-7.812-15.625-18.75-15.625-15.625-50-29.687-45.312-28.125,0,0,40.625-15.625,109.375,67.187,0,0,7.812,17.188-10.938,18.75,0,0-20.312,1.563-32.813-1.563,0,0-6.25,7.812,6.25,12.5,0,0,15.625-4.687,28.125,10.938,0,0,7.812,15.625-23.438,17.188,0,0-7.812,1.563-4.687,7.812,0,0,0,1.563,1.563,1.563h0l4.687,3.125h0Z"/>
  <g>
    <rect class="cls-1" x="756.902" y="163.866" width="2915.006" height="203.294"/>
    <path class="cls-3" d="M775.257,163.909h67.097c15.131,0,26.665,1.159,34.603,3.473,10.666,3.143,19.801,8.724,27.409,16.743,7.606,8.021,13.395,17.84,17.363,29.456,3.969,11.618,5.953,25.942,5.953,42.974,0,14.966-1.86,27.865-5.581,38.695-4.548,13.23-11.038,23.937-19.472,32.122-6.368,6.201-14.966,11.038-25.797,14.511-8.104,2.563-18.935,3.845-32.494,3.845h-69.081v-181.818ZM811.968,194.667v120.427h27.409c10.251,0,17.652-.578,22.2-1.736,5.953-1.488,10.893-4.009,14.821-7.565,3.926-3.554,7.131-9.404,9.612-17.549,2.48-8.143,3.721-19.243,3.721-33.3s-1.24-24.845-3.721-32.37c-2.48-7.523-5.953-13.395-10.418-17.611s-10.129-7.069-16.991-8.558c-5.127-1.157-15.173-1.736-30.138-1.736h-16.495Z"/>
    <path class="cls-3" d="M991.926,345.728h-34.851v-131.713h32.37v18.728c5.539-8.846,10.521-14.675,14.945-17.487,4.422-2.81,9.445-4.217,15.069-4.217,7.938,0,15.584,2.192,22.944,6.573l-10.79,30.386c-5.872-3.802-11.329-5.705-16.371-5.705-4.879,0-9.013,1.345-12.402,4.031-3.391,2.688-6.058,7.546-8,14.573-1.944,7.029-2.915,21.747-2.915,44.152v40.68Z"/>
    <path class="cls-3" d="M1097.425,345.728l-43.408-181.818h37.579l27.409,124.892,33.238-124.892h43.656l31.874,127,27.905-127h36.959l-44.152,181.818h-38.943l-36.215-135.93-36.091,135.93h-39.812Z"/>
    <path class="cls-3" d="M1308.885,196.155v-32.246h34.851v32.246h-34.851ZM1308.885,345.728v-131.713h34.851v131.713h-34.851Z"/>
    <path class="cls-3" d="M1499.262,345.728h-34.851v-67.221c0-14.22-.744-23.419-2.232-27.595-1.488-4.174-3.907-7.42-7.256-9.736-3.349-2.314-7.379-3.473-12.092-3.473-6.037,0-11.453,1.655-16.247,4.961-4.797,3.308-8.083,7.689-9.86,13.146-1.778,5.457-2.666,15.545-2.666,30.262v59.655h-34.851v-131.713h32.37v19.348c11.491-14.883,25.961-22.324,43.408-22.324,7.689,0,14.716,1.386,21.084,4.155,6.366,2.771,11.181,6.306,14.448,10.604,3.266,4.3,5.539,9.178,6.82,14.635s1.924,13.271,1.924,23.44v81.855Z"/>
    <path class="cls-3" d="M1595.007,214.015v27.781h-23.812v53.082c0,10.75.227,17.013.682,18.79.454,1.779,1.488,3.246,3.102,4.403,1.611,1.159,3.575,1.736,5.891,1.736,3.225,0,7.895-1.116,14.015-3.349l2.977,27.037c-8.104,3.473-17.282,5.209-27.533,5.209-6.284,0-11.949-1.055-16.991-3.162-5.044-2.109-8.744-4.838-11.1-8.186-2.357-3.35-3.99-7.876-4.899-13.581-.744-4.05-1.116-12.236-1.116-24.557v-57.423h-15.999v-27.781h15.999v-26.169l34.975-20.34v46.509h23.812Z"/>
    <path class="cls-3" d="M1695.466,303.808l34.727,5.829c-4.465,12.734-11.515,22.429-21.146,29.083-9.633,6.657-21.685,9.984-36.152,9.984-22.903,0-39.854-7.482-50.85-22.448-8.682-11.988-13.022-27.119-13.022-45.393,0-21.828,5.705-38.922,17.115-51.284,11.41-12.36,25.838-18.542,43.284-18.542,19.596,0,35.056,6.471,46.385,19.41,11.327,12.941,16.743,32.764,16.247,59.469h-87.312c.248,10.336,3.058,18.377,8.434,24.123,5.374,5.748,12.071,8.62,20.092,8.62,5.457,0,10.046-1.488,13.767-4.465s6.53-7.771,8.434-14.387ZM1697.45,268.585c-.248-10.086-2.853-17.755-7.813-23.006-4.961-5.25-10.997-7.875-18.107-7.875-7.608,0-13.891,2.771-18.852,8.31-4.961,5.541-7.4,13.065-7.317,22.572h52.09Z"/>
    <path class="cls-3" d="M1793.816,345.728h-34.851v-131.713h32.37v18.728c5.538-8.846,10.521-14.675,14.945-17.487,4.422-2.81,9.444-4.217,15.068-4.217,7.938,0,15.584,2.192,22.944,6.573l-10.79,30.386c-5.872-3.802-11.329-5.705-16.371-5.705-4.88,0-9.013,1.345-12.402,4.031-3.392,2.688-6.058,7.546-8,14.573-1.943,7.029-2.914,21.747-2.914,44.152v40.68Z"/>
    <path class="cls-3" d="M1958.104,278.879v-30.634h79.127v72.43c-7.689,7.441-18.832,13.995-33.425,19.658-14.594,5.662-29.374,8.495-44.338,8.495-19.019,0-35.595-3.988-49.733-11.968-14.139-7.979-24.764-19.389-31.874-34.231-7.112-14.84-10.666-30.984-10.666-48.431,0-18.933,3.969-35.759,11.906-50.478,7.938-14.716,19.553-26.002,34.851-33.858,11.658-6.035,26.169-9.054,43.532-9.054,22.572,0,40.203,4.734,52.896,14.201,12.69,9.468,20.854,22.553,24.494,39.253l-36.463,6.821c-2.563-8.93-7.379-15.978-14.449-21.146-7.068-5.167-15.896-7.751-26.479-7.751-16.042,0-28.795,5.085-38.262,15.255-9.468,10.17-14.2,25.26-14.2,45.269,0,21.58,4.794,37.765,14.387,48.555,9.591,10.79,22.157,16.185,37.703,16.185,7.689,0,15.398-1.508,23.13-4.527,7.73-3.017,14.366-6.676,19.906-10.976v-23.068h-42.044Z"/>
    <path class="cls-3" d="M2104.203,345.728h-34.851v-131.713h32.37v18.728c5.538-8.846,10.521-14.675,14.945-17.487,4.422-2.81,9.444-4.217,15.068-4.217,7.938,0,15.584,2.192,22.944,6.573l-10.79,30.386c-5.872-3.802-11.329-5.705-16.371-5.705-4.88,0-9.013,1.345-12.402,4.031-3.392,2.688-6.058,7.546-8,14.573-1.943,7.029-2.914,21.747-2.914,44.152v40.68Z"/>
    <path class="cls-3" d="M2161.626,278.011c0-11.575,2.853-22.778,8.558-33.61,5.705-10.831,13.786-19.1,24.247-24.805,10.458-5.705,22.138-8.558,35.036-8.558,19.925,0,36.256,6.471,48.989,19.41,12.731,12.941,19.1,29.291,19.1,49.051,0,19.927-6.43,36.443-19.285,49.547-12.858,13.106-29.043,19.658-48.556,19.658-12.073,0-23.586-2.729-34.54-8.186-10.957-5.457-19.286-13.457-24.991-23.999s-8.558-23.378-8.558-38.509ZM2197.345,279.871c0,13.065,3.101,23.068,9.302,30.014s13.848,10.418,22.944,10.418,16.722-3.473,22.883-10.418c6.158-6.945,9.239-17.032,9.239-30.262,0-12.898-3.081-22.82-9.239-29.766-6.161-6.945-13.788-10.418-22.883-10.418s-16.743,3.473-22.944,10.418-9.302,16.951-9.302,30.014Z"/>
    <path class="cls-3" d="M2439.687,252.958l-34.354,6.201c-1.159-6.862-3.783-12.03-7.875-15.503-4.094-3.473-9.407-5.209-15.938-5.209-8.682,0-15.607,2.998-20.773,8.992-5.169,5.996-7.752,16.021-7.752,30.076,0,15.627,2.624,26.665,7.875,33.114,5.25,6.449,12.298,9.674,21.146,9.674,6.614,0,12.03-1.88,16.247-5.643,4.217-3.761,7.193-10.232,8.93-19.41l34.23,5.829c-3.556,15.71-10.377,27.576-20.464,35.595-10.089,8.021-23.607,12.03-40.556,12.03-19.267,0-34.624-6.077-46.075-18.231-11.452-12.154-17.177-28.979-17.177-50.478,0-21.745,5.746-38.674,17.239-50.788,11.491-12.112,27.037-18.169,46.633-18.169,16.04,0,28.793,3.453,38.262,10.356,9.466,6.905,16.266,17.425,20.401,31.564Z"/>
    <path class="cls-3" d="M2500.83,163.909v66.849c11.243-13.146,24.681-19.72,40.308-19.72,8.019,0,15.255,1.488,21.704,4.465s11.306,6.781,14.573,11.41c3.265,4.631,5.497,9.757,6.697,15.379,1.197,5.624,1.798,14.346,1.798,26.169v77.267h-34.851v-69.577c0-13.807-.663-22.572-1.984-26.293-1.323-3.721-3.658-6.676-7.008-8.868-3.348-2.19-7.546-3.287-12.588-3.287-5.788,0-10.957,1.407-15.503,4.217-4.548,2.812-7.876,7.05-9.983,12.712-2.109,5.665-3.163,14.036-3.163,25.115v65.98h-34.851v-181.818h34.851Z"/>
    <path class="cls-3" d="M2613.195,278.011c0-11.575,2.853-22.778,8.558-33.61,5.705-10.831,13.786-19.1,24.247-24.805,10.458-5.705,22.138-8.558,35.036-8.558,19.925,0,36.256,6.471,48.989,19.41,12.731,12.941,19.1,29.291,19.1,49.051,0,19.927-6.43,36.443-19.285,49.547-12.858,13.106-29.043,19.658-48.556,19.658-12.073,0-23.586-2.729-34.54-8.186-10.957-5.457-19.286-13.457-24.991-23.999s-8.558-23.378-8.558-38.509ZM2648.914,279.871c0,13.065,3.101,23.068,9.302,30.014s13.848,10.418,22.944,10.418,16.722-3.473,22.883-10.418c6.158-6.945,9.239-17.032,9.239-30.262,0-12.898-3.081-22.82-9.239-29.766-6.161-6.945-13.788-10.418-22.883-10.418s-16.743,3.473-22.944,10.418-9.302,16.951-9.302,30.014Z"/>
    <path class="cls-3" d="M2776.41,345.728v-181.818h34.851v181.818h-34.851Z"/>
    <path class="cls-3" d="M2846.979,345.728v-181.818h34.851v181.818h-34.851Z"/>
    <path class="cls-3" d="M2972.694,345.728v-151.061h-53.95v-30.758h144.487v30.758h-53.826v151.061h-36.711Z"/>
    <path class="cls-3" d="M3144.095,303.808l34.727,5.829c-4.465,12.734-11.515,22.429-21.146,29.083-9.633,6.657-21.685,9.984-36.152,9.984-22.903,0-39.854-7.482-50.85-22.448-8.682-11.988-13.022-27.119-13.022-45.393,0-21.828,5.705-38.922,17.115-51.284,11.41-12.36,25.838-18.542,43.284-18.542,19.596,0,35.056,6.471,46.385,19.41,11.327,12.941,16.743,32.764,16.247,59.469h-87.312c.248,10.336,3.058,18.377,8.434,24.123,5.374,5.748,12.071,8.62,20.092,8.62,5.457,0,10.046-1.488,13.767-4.465s6.53-7.771,8.434-14.387ZM3146.079,268.585c-.248-10.086-2.853-17.755-7.813-23.006-4.961-5.25-10.997-7.875-18.107-7.875-7.608,0-13.891,2.771-18.852,8.31-4.961,5.541-7.4,13.065-7.317,22.572h52.09Z"/>
    <path class="cls-3" d="M3235.128,254.198l-31.626-5.705c3.554-12.732,9.674-22.158,18.355-28.277,8.682-6.118,21.58-9.178,38.695-9.178,15.544,0,27.118,1.841,34.727,5.519,7.606,3.68,12.961,8.352,16.061,14.015,3.102,5.665,4.651,16.061,4.651,31.192l-.372,40.68c0,11.577.559,20.113,1.674,25.611,1.117,5.5,3.204,11.391,6.264,17.673h-34.479c-.911-2.313-2.027-5.746-3.349-10.294-.579-2.065-.992-3.43-1.24-4.093-5.953,5.788-12.321,10.129-19.1,13.022-6.78,2.894-14.015,4.341-21.704,4.341-13.562,0-24.246-3.678-32.061-11.038-7.812-7.357-11.72-16.66-11.72-27.905,0-7.441,1.777-14.077,5.333-19.906,3.554-5.829,8.536-10.294,14.945-13.395,6.406-3.101,15.646-5.808,27.719-8.124,16.288-3.058,27.574-5.911,33.858-8.558v-3.473c0-6.697-1.655-11.472-4.961-14.325-3.308-2.853-9.55-4.279-18.728-4.279-6.201,0-11.038,1.221-14.511,3.659-3.473,2.44-6.284,6.719-8.434,12.836ZM3281.761,282.476c-4.465,1.488-11.534,3.267-21.208,5.333-9.674,2.068-15.999,4.093-18.976,6.077-4.548,3.225-6.821,7.317-6.821,12.278,0,4.879,1.817,9.096,5.457,12.65,3.638,3.556,8.267,5.333,13.891,5.333,6.282,0,12.278-2.066,17.983-6.201,4.217-3.141,6.986-6.986,8.31-11.534.909-2.977,1.364-8.639,1.364-16.991v-6.945Z"/>
    <path class="cls-3" d="M3347.741,214.015h32.122v17.983c11.491-13.972,25.177-20.96,41.052-20.96,8.434,0,15.751,1.736,21.952,5.209s11.286,8.724,15.255,15.751c5.786-7.027,12.03-12.278,18.728-15.751s13.848-5.209,21.456-5.209c9.674,0,17.859,1.965,24.557,5.891,6.697,3.928,11.699,9.695,15.007,17.301,2.397,5.624,3.597,14.718,3.597,27.285v84.212h-34.851v-75.282c0-13.063-1.199-21.497-3.597-25.301-3.225-4.961-8.186-7.441-14.883-7.441-4.88,0-9.469,1.488-13.767,4.465-4.3,2.977-7.4,7.339-9.302,13.084-1.903,5.748-2.853,14.821-2.853,27.223v63.252h-34.851v-72.182c0-12.815-.62-21.084-1.86-24.805s-3.163-6.49-5.767-8.31c-2.605-1.818-6.14-2.729-10.604-2.729-5.376,0-10.213,1.448-14.511,4.341-4.3,2.895-7.379,7.069-9.24,12.526-1.859,5.457-2.79,14.511-2.79,27.161v63.996h-34.851v-131.713Z"/>
  </g>
  <g>
    <rect class="cls-1" x="770.868" y="406.902" width="1174.021" height="105.035"/>
    <path class="cls-3" d="M777.416,471.341v-64.424h20.874c7.91,0,13.066.322,15.469.967,3.691.967,6.782,3.069,9.272,6.307,2.49,3.237,3.735,7.419,3.735,12.546,0,3.955-.718,7.28-2.153,9.976-1.436,2.695-3.259,4.812-5.471,6.35-2.212,1.539-4.46,2.557-6.746,3.055-3.105.615-7.603.923-13.491.923h-8.481v24.302h-13.008ZM790.424,417.815v18.281h7.119c5.126,0,8.554-.337,10.283-1.011,1.729-.674,3.083-1.729,4.065-3.164.981-1.436,1.472-3.105,1.472-5.01,0-2.344-.688-4.277-2.065-5.801-1.377-1.523-3.12-2.476-5.229-2.856-1.553-.293-4.673-.439-9.36-.439h-6.284Z"/>
    <path class="cls-3" d="M849.179,471.341h-12.349v-46.67h11.47v6.636c1.962-3.135,3.728-5.2,5.295-6.196,1.567-.996,3.347-1.494,5.339-1.494,2.812,0,5.522.776,8.13,2.329l-3.823,10.767c-2.081-1.348-4.014-2.021-5.801-2.021-1.729,0-3.193.477-4.395,1.428-1.202.953-2.146,2.674-2.834,5.164-.688,2.49-1.033,7.705-1.033,15.645v14.414Z"/>
    <path class="cls-3" d="M869.525,447.347c0-4.102,1.011-8.071,3.032-11.909s4.885-6.768,8.591-8.789c3.706-2.021,7.844-3.032,12.415-3.032,7.06,0,12.847,2.293,17.358,6.877,4.511,4.586,6.768,10.379,6.768,17.381,0,7.061-2.278,12.913-6.833,17.557-4.556,4.644-10.291,6.965-17.205,6.965-4.278,0-8.357-.967-12.239-2.9-3.882-1.934-6.833-4.768-8.855-8.504-2.021-3.734-3.032-8.283-3.032-13.645ZM882.182,448.006c0,4.629,1.099,8.174,3.296,10.635s4.907,3.691,8.13,3.691,5.925-1.23,8.108-3.691c2.182-2.461,3.274-6.035,3.274-10.723,0-4.57-1.092-8.086-3.274-10.547-2.183-2.461-4.885-3.691-8.108-3.691s-5.933,1.23-8.13,3.691-3.296,6.006-3.296,10.635Z"/>
    <path class="cls-3" d="M921.952,424.671h6.855v-3.516c0-3.926.417-6.855,1.252-8.789s2.373-3.508,4.614-4.725c2.241-1.215,5.076-1.823,8.503-1.823,3.516,0,6.958.527,10.327,1.582l-1.67,8.613c-1.963-.469-3.853-.703-5.669-.703-1.787,0-3.069.417-3.845,1.253-.776.834-1.165,2.438-1.165,4.812v3.296h9.229v9.712h-9.229v36.958h-12.349v-36.958h-6.855v-9.712Z"/>
    <path class="cls-3" d="M984.354,456.487l12.305,2.065c-1.582,4.512-4.08,7.947-7.493,10.306-3.413,2.358-7.684,3.537-12.81,3.537-8.115,0-14.122-2.651-18.018-7.954-3.076-4.248-4.614-9.609-4.614-16.084,0-7.734,2.021-13.791,6.064-18.171s9.155-6.57,15.337-6.57c6.943,0,12.421,2.293,16.436,6.877,4.014,4.586,5.933,11.609,5.757,21.072h-30.938c.088,3.662,1.083,6.512,2.988,8.547,1.904,2.037,4.277,3.055,7.119,3.055,1.934,0,3.56-.527,4.878-1.582s2.314-2.754,2.988-5.098ZM985.058,444.007c-.088-3.574-1.011-6.291-2.769-8.152-1.758-1.859-3.896-2.79-6.416-2.79-2.696,0-4.922.981-6.68,2.944s-2.622,4.629-2.593,7.998h18.457Z"/>
    <path class="cls-3" d="M1003.031,458.025l12.393-1.89c.527,2.402,1.597,4.227,3.208,5.471,1.611,1.246,3.867,1.868,6.768,1.868,3.193,0,5.596-.586,7.207-1.758,1.083-.82,1.626-1.919,1.626-3.296,0-.938-.293-1.714-.879-2.329-.615-.586-1.993-1.128-4.131-1.626-9.961-2.197-16.275-4.204-18.94-6.021-3.691-2.52-5.537-6.021-5.537-10.503,0-4.043,1.597-7.441,4.79-10.195,3.193-2.754,8.145-4.131,14.854-4.131,6.387,0,11.133,1.04,14.238,3.12,3.105,2.08,5.244,5.156,6.416,9.229l-11.646,2.153c-.499-1.816-1.443-3.208-2.834-4.175-1.392-.967-3.377-1.45-5.955-1.45-3.252,0-5.581.454-6.987,1.362-.938.645-1.406,1.479-1.406,2.505,0,.879.41,1.626,1.23,2.241,1.113.82,4.958,1.978,11.536,3.472,6.577,1.494,11.169,3.325,13.777,5.493,2.578,2.197,3.867,5.259,3.867,9.185,0,4.277-1.787,7.954-5.361,11.03-3.575,3.076-8.862,4.614-15.864,4.614-6.357,0-11.389-1.289-15.095-3.867-3.707-2.578-6.13-6.079-7.273-10.503Z"/>
    <path class="cls-3" d="M1053.085,458.025l12.393-1.89c.527,2.402,1.597,4.227,3.208,5.471,1.611,1.246,3.867,1.868,6.768,1.868,3.193,0,5.596-.586,7.207-1.758,1.083-.82,1.626-1.919,1.626-3.296,0-.938-.293-1.714-.879-2.329-.615-.586-1.993-1.128-4.131-1.626-9.961-2.197-16.275-4.204-18.94-6.021-3.691-2.52-5.537-6.021-5.537-10.503,0-4.043,1.597-7.441,4.79-10.195,3.193-2.754,8.145-4.131,14.854-4.131,6.387,0,11.133,1.04,14.238,3.12,3.105,2.08,5.244,5.156,6.416,9.229l-11.646,2.153c-.499-1.816-1.443-3.208-2.834-4.175-1.392-.967-3.377-1.45-5.955-1.45-3.252,0-5.581.454-6.987,1.362-.938.645-1.406,1.479-1.406,2.505,0,.879.41,1.626,1.23,2.241,1.113.82,4.958,1.978,11.536,3.472,6.577,1.494,11.169,3.325,13.777,5.493,2.578,2.197,3.867,5.259,3.867,9.185,0,4.277-1.787,7.954-5.361,11.03-3.575,3.076-8.862,4.614-15.864,4.614-6.357,0-11.389-1.289-15.095-3.867-3.707-2.578-6.13-6.079-7.273-10.503Z"/>
    <path class="cls-3" d="M1107.489,418.343v-11.426h12.349v11.426h-12.349ZM1107.489,471.341v-46.67h12.349v46.67h-12.349Z"/>
    <path class="cls-3" d="M1129.638,447.347c0-4.102,1.011-8.071,3.032-11.909s4.885-6.768,8.591-8.789c3.706-2.021,7.844-3.032,12.415-3.032,7.06,0,12.847,2.293,17.358,6.877,4.511,4.586,6.768,10.379,6.768,17.381,0,7.061-2.278,12.913-6.833,17.557-4.556,4.644-10.291,6.965-17.205,6.965-4.278,0-8.357-.967-12.239-2.9-3.882-1.934-6.833-4.768-8.855-8.504-2.021-3.734-3.032-8.283-3.032-13.645ZM1142.294,448.006c0,4.629,1.099,8.174,3.296,10.635s4.907,3.691,8.13,3.691,5.925-1.23,8.108-3.691c2.182-2.461,3.274-6.035,3.274-10.723,0-4.57-1.092-8.086-3.274-10.547-2.183-2.461-4.885-3.691-8.108-3.691s-5.933,1.23-8.13,3.691-3.296,6.006-3.296,10.635Z"/>
    <path class="cls-3" d="M1229.921,471.341h-12.349v-23.818c0-5.039-.264-8.298-.791-9.777s-1.384-2.63-2.571-3.45-2.615-1.23-4.285-1.23c-2.139,0-4.058.586-5.757,1.758-1.699,1.172-2.864,2.725-3.494,4.658-.63,1.934-.945,5.508-.945,10.723v21.138h-12.349v-46.67h11.47v6.855c4.072-5.273,9.199-7.91,15.381-7.91,2.725,0,5.214.491,7.471,1.473,2.256.981,3.962,2.233,5.12,3.757,1.157,1.523,1.962,3.252,2.417,5.186.454,1.934.681,4.702.681,8.306v29.004Z"/>
    <path class="cls-3" d="M1251.674,438.909l-11.206-2.021c1.259-4.512,3.428-7.852,6.504-10.02s7.646-3.252,13.711-3.252c5.508,0,9.609.652,12.305,1.955,2.695,1.305,4.592,2.96,5.691,4.967s1.648,5.69,1.648,11.052l-.132,14.414c0,4.102.198,7.127.593,9.075s1.135,4.035,2.219,6.262h-12.217c-.323-.82-.718-2.036-1.187-3.647-.205-.732-.352-1.216-.439-1.45-2.109,2.051-4.366,3.589-6.768,4.614-2.402,1.025-4.966,1.538-7.69,1.538-4.805,0-8.591-1.304-11.36-3.911s-4.153-5.903-4.153-9.888c0-2.637.63-4.988,1.89-7.053,1.259-2.066,3.025-3.648,5.295-4.746,2.27-1.1,5.544-2.059,9.822-2.879,5.771-1.084,9.771-2.095,11.997-3.032v-1.23c0-2.373-.586-4.065-1.758-5.075-1.172-1.012-3.384-1.517-6.636-1.517-2.197,0-3.911.433-5.142,1.296-1.23.865-2.227,2.381-2.988,4.549ZM1268.197,448.929c-1.582.527-4.087,1.157-7.515,1.89s-5.669,1.45-6.724,2.153c-1.611,1.143-2.417,2.593-2.417,4.351,0,1.729.644,3.223,1.934,4.482,1.289,1.26,2.929,1.89,4.922,1.89,2.226,0,4.351-.732,6.372-2.197,1.494-1.113,2.476-2.476,2.944-4.087.322-1.055.483-3.062.483-6.021v-2.461Z"/>
    <path class="cls-3" d="M1292.499,471.341v-64.424h12.349v64.424h-12.349Z"/>
    <path class="cls-3" d="M1342.201,471.341v-64.424h13.008v64.424h-13.008Z"/>
    <path class="cls-3" d="M1409.965,471.341h-12.349v-23.818c0-5.039-.264-8.298-.791-9.777s-1.384-2.63-2.57-3.45-2.615-1.23-4.285-1.23c-2.139,0-4.058.586-5.757,1.758s-2.863,2.725-3.493,4.658c-.631,1.934-.945,5.508-.945,10.723v21.138h-12.349v-46.67h11.47v6.855c4.072-5.273,9.199-7.91,15.381-7.91,2.725,0,5.215.491,7.471,1.473s3.962,2.233,5.12,3.757c1.157,1.523,1.962,3.252,2.417,5.186.454,1.934.681,4.702.681,8.306v29.004Z"/>
    <path class="cls-3" d="M1435.321,471.341l-18.809-46.67h12.964l8.789,23.818,2.549,7.954c.674-2.021,1.099-3.354,1.274-3.999.41-1.318.85-2.637,1.318-3.955l8.877-23.818h12.7l-18.545,46.67h-11.118Z"/>
    <path class="cls-3" d="M1499.569,456.487l12.305,2.065c-1.582,4.512-4.08,7.947-7.492,10.306-3.413,2.358-7.684,3.537-12.811,3.537-8.115,0-14.121-2.651-18.018-7.954-3.076-4.248-4.614-9.609-4.614-16.084,0-7.734,2.021-13.791,6.064-18.171s9.155-6.57,15.337-6.57c6.943,0,12.422,2.293,16.436,6.877,4.014,4.586,5.933,11.609,5.757,21.072h-30.938c.088,3.662,1.084,6.512,2.988,8.547,1.904,2.037,4.277,3.055,7.119,3.055,1.934,0,3.56-.527,4.878-1.582s2.314-2.754,2.988-5.098ZM1500.272,444.007c-.088-3.574-1.011-6.291-2.769-8.152-1.758-1.859-3.896-2.79-6.416-2.79-2.695,0-4.922.981-6.68,2.944s-2.622,4.629-2.593,7.998h18.457Z"/>
    <path class="cls-3" d="M1518.246,458.025l12.393-1.89c.527,2.402,1.597,4.227,3.208,5.471,1.611,1.246,3.867,1.868,6.768,1.868,3.193,0,5.596-.586,7.207-1.758,1.084-.82,1.626-1.919,1.626-3.296,0-.938-.293-1.714-.879-2.329-.615-.586-1.992-1.128-4.131-1.626-9.961-2.197-16.274-4.204-18.94-6.021-3.691-2.52-5.537-6.021-5.537-10.503,0-4.043,1.597-7.441,4.79-10.195s8.145-4.131,14.854-4.131c6.387,0,11.133,1.04,14.238,3.12s5.244,5.156,6.416,9.229l-11.646,2.153c-.498-1.816-1.443-3.208-2.835-4.175s-3.376-1.45-5.954-1.45c-3.252,0-5.581.454-6.987,1.362-.938.645-1.406,1.479-1.406,2.505,0,.879.41,1.626,1.23,2.241,1.113.82,4.958,1.978,11.535,3.472s11.17,3.325,13.777,5.493c2.578,2.197,3.867,5.259,3.867,9.185,0,4.277-1.787,7.954-5.361,11.03s-8.862,4.614-15.864,4.614c-6.357,0-11.39-1.289-15.095-3.867-3.707-2.578-6.131-6.079-7.273-10.503Z"/>
    <path class="cls-3" d="M1594.052,424.671v9.844h-8.438v18.809c0,3.809.08,6.028.242,6.658.16.63.527,1.149,1.098,1.56.572.41,1.268.615,2.088.615,1.143,0,2.798-.396,4.966-1.187l1.055,9.58c-2.871,1.23-6.123,1.846-9.756,1.846-2.227,0-4.233-.373-6.021-1.121-1.787-.746-3.098-1.713-3.934-2.9-.834-1.186-1.413-2.79-1.735-4.812-.264-1.436-.396-4.336-.396-8.701v-20.347h-5.669v-9.844h5.669v-9.272l12.393-7.207v16.479h8.438Z"/>
    <path class="cls-3" d="M1601.698,424.671h11.382v6.372c4.072-4.951,8.921-7.427,14.546-7.427,2.988,0,5.581.615,7.778,1.846s3.999,3.091,5.405,5.581c2.051-2.49,4.263-4.351,6.636-5.581s4.907-1.846,7.603-1.846c3.428,0,6.328.696,8.701,2.088s4.146,3.435,5.317,6.13c.85,1.992,1.274,5.215,1.274,9.668v29.839h-12.349v-26.675c0-4.629-.425-7.617-1.274-8.965-1.143-1.758-2.9-2.637-5.273-2.637-1.729,0-3.354.527-4.878,1.582s-2.622,2.601-3.296,4.636c-.674,2.037-1.011,5.252-1.011,9.646v22.412h-12.349v-25.576c0-4.541-.22-7.471-.659-8.789s-1.12-2.3-2.044-2.944c-.922-.645-2.175-.967-3.757-.967-1.904,0-3.618.513-5.142,1.538s-2.615,2.505-3.273,4.438c-.66,1.934-.989,5.142-.989,9.624v22.676h-12.349v-46.67Z"/>
    <path class="cls-3" d="M1709.672,456.487l12.305,2.065c-1.582,4.512-4.08,7.947-7.492,10.306-3.414,2.358-7.684,3.537-12.811,3.537-8.115,0-14.121-2.651-18.018-7.954-3.076-4.248-4.614-9.609-4.614-16.084,0-7.734,2.021-13.791,6.064-18.171s9.155-6.57,15.337-6.57c6.943,0,12.422,2.293,16.436,6.877,4.014,4.586,5.933,11.609,5.757,21.072h-30.938c.088,3.662,1.084,6.512,2.988,8.547,1.904,2.037,4.277,3.055,7.119,3.055,1.934,0,3.56-.527,4.878-1.582s2.314-2.754,2.988-5.098ZM1710.375,444.007c-.088-3.574-1.011-6.291-2.769-8.152-1.758-1.859-3.896-2.79-6.416-2.79-2.695,0-4.922.981-6.68,2.944s-2.622,4.629-2.593,7.998h18.457Z"/>
    <path class="cls-3" d="M1775.15,471.341h-12.349v-23.818c0-5.039-.264-8.298-.791-9.777s-1.385-2.63-2.57-3.45c-1.188-.82-2.615-1.23-4.285-1.23-2.139,0-4.058.586-5.757,1.758s-2.864,2.725-3.493,4.658c-.631,1.934-.945,5.508-.945,10.723v21.138h-12.349v-46.67h11.47v6.855c4.072-5.273,9.199-7.91,15.381-7.91,2.725,0,5.215.491,7.471,1.473s3.962,2.233,5.119,3.757,1.963,3.252,2.418,5.186c.453,1.934.681,4.702.681,8.306v29.004Z"/>
    <path class="cls-3" d="M1809.076,424.671v9.844h-8.438v18.809c0,3.809.08,6.028.242,6.658.16.63.527,1.149,1.098,1.56.572.41,1.268.615,2.088.615,1.143,0,2.798-.396,4.966-1.187l1.055,9.58c-2.871,1.23-6.123,1.846-9.756,1.846-2.227,0-4.233-.373-6.021-1.121-1.787-.746-3.098-1.713-3.934-2.9-.834-1.186-1.413-2.79-1.735-4.812-.264-1.436-.396-4.336-.396-8.701v-20.347h-5.669v-9.844h5.669v-9.272l12.393-7.207v16.479h8.438Z"/>
    <path class="cls-3" d="M1813.295,458.025l12.393-1.89c.527,2.402,1.597,4.227,3.208,5.471,1.611,1.246,3.867,1.868,6.768,1.868,3.193,0,5.596-.586,7.207-1.758,1.084-.82,1.626-1.919,1.626-3.296,0-.938-.293-1.714-.879-2.329-.615-.586-1.992-1.128-4.131-1.626-9.961-2.197-16.274-4.204-18.94-6.021-3.691-2.52-5.537-6.021-5.537-10.503,0-4.043,1.597-7.441,4.79-10.195s8.145-4.131,14.854-4.131c6.387,0,11.133,1.04,14.238,3.12s5.244,5.156,6.416,9.229l-11.646,2.153c-.498-1.816-1.443-3.208-2.835-4.175s-3.376-1.45-5.954-1.45c-3.252,0-5.581.454-6.987,1.362-.938.645-1.406,1.479-1.406,2.505,0,.879.41,1.626,1.23,2.241,1.113.82,4.958,1.978,11.535,3.472s11.17,3.325,13.777,5.493c2.578,2.197,3.867,5.259,3.867,9.185,0,4.277-1.787,7.954-5.361,11.03s-8.862,4.614-15.864,4.614c-6.357,0-11.39-1.289-15.095-3.867-3.707-2.578-6.131-6.079-7.273-10.503Z"/>
  </g>
</svg>